<svg width="18" height="18" viewBox="0 0 18 18" fill="none" xmlns="http://www.w3.org/2000/svg">
<path d="M13.1906 6.71429H13.9525C14.7607 6.71429 15.5359 7.03538 16.1074 7.60692C16.679 8.17846 17.0001 8.95363 17.0001 9.76191C17.0001 10.5702 16.679 11.3454 16.1074 11.9169C15.5359 12.4884 14.7607 12.8095 13.9525 12.8095H13.1906" stroke="white" stroke-width="1.52381" stroke-linecap="round" stroke-linejoin="round"/>
<path d="M1 6.71429H13.1905V13.5714C13.1905 14.3797 12.8694 15.1549 12.2978 15.7264C11.7263 16.298 10.9511 16.6191 10.1429 16.6191H4.04762C3.23934 16.6191 2.46417 16.298 1.89263 15.7264C1.32109 15.1549 1 14.3797 1 13.5714V6.71429Z" stroke="white" stroke-width="1.52381" stroke-linecap="round" stroke-linejoin="round"/>
<path d="M4.04761 1.38095V3.66667" stroke="white" stroke-width="1.52381" stroke-linecap="round" stroke-linejoin="round"/>
<path d="M7.09521 1.38095V3.66667" stroke="white" stroke-width="1.52381" stroke-linecap="round" stroke-linejoin="round"/>
<path d="M10.1428 1.38095V3.66667" stroke="white" stroke-width="1.52381" stroke-linecap="round" stroke-linejoin="round"/>
</svg>
